<?xml version="1.0" encoding="UTF-8"?>
<svg width="67px" height="62px" viewBox="0 0 67 62" version="1.1" xmlns="http://www.w3.org/2000/svg" xmlns:xlink="http://www.w3.org/1999/xlink">
    <title>noun_Package_1093871</title>
    <g id="Welcome" stroke="none" stroke-width="1" fill="none" fill-rule="evenodd">
        <g id="TF-Responsive-Layout" transform="translate(-416.000000, -2982.000000)" fill="#FFFFFF" fill-rule="nonzero">
            <g id="noun_Package_1093871" transform="translate(416.872540, 2982.000000)">
                <g id="Group" transform="translate(0.000000, -0.000000)">
                    <path d="M66,17.9 C66,17.9 66,17.8 66,17.8 C66,17.7 66,17.6 66,17.6 C66,17.5 66,17.5 66,17.4 C66,17.3 66,17.3 65.9,17.2 C65.9,17.1 65.8,17.1 65.8,17 C65.8,17 65.8,16.9 65.7,16.9 L56.9,2.8 C55.8,1 53.9,-7.10542736e-15 51.8,-7.10542736e-15 L14.2,-7.10542736e-15 C12.1,-7.10542736e-15 10.2,1.1 9.1,2.8 L0.3,16.9 C0.3,16.9 0.3,17 0.2,17 C0.2,17.1 0.1,17.1 0.1,17.2 C0.1,17.3 0.1,17.3 -3.55271368e-15,17.4 C-3.55271368e-15,17.5 -3.55271368e-15,17.5 -3.55271368e-15,17.6 C-3.55271368e-15,17.7 -3.55271368e-15,17.8 -3.55271368e-15,17.8 C-3.55271368e-15,17.8 -3.55271368e-15,17.9 -3.55271368e-15,17.9 L-3.55271368e-15,54.9 C-3.55271368e-15,58.8 3.1,61.9 7,61.9 L59,61.9 C62.9,61.9 66,58.8 66,54.9 L66,17.9 Z M53.5,4.8 L60.4,15.9 L35,15.9 L35,3.9 L51.8,3.9 C52.5,3.9 53.1,4.3 53.5,4.8 Z M12.5,4.8 C12.9,4.2 13.5,3.9 14.2,3.9 L31,3.9 L31,15.9 L5.6,15.9 L12.5,4.8 Z M25,57.9 L25,50.9 L41,50.9 L41,57.9 L25,57.9 Z M62,54.9 C62,56.6 60.7,57.9 59,57.9 L45,57.9 L45,48.9 C45,47.8 44.1,46.9 43,46.9 L23,46.9 C21.9,46.9 21,47.8 21,48.9 L21,57.9 L7,57.9 C5.3,57.9 4,56.6 4,54.9 L4,19.9 L62,19.9 L62,54.9 Z" id="Shape"></path>
                    <path d="M21.5,36.2 C21.5,37.3 22.4,38.2 23.5,38.2 L42.5,38.2 C43.6,38.2 44.5,37.3 44.5,36.2 C44.5,35.1 43.6,34.2 42.5,34.2 L23.5,34.2 C22.4,34.2 21.5,35.1 21.5,36.2 Z" id="Path"></path>
                </g>
            </g>
        </g>
    </g>
</svg>