<?xml version="1.0" encoding="UTF-8"?>
<svg width="65px" height="70px" viewBox="0 0 65 70" version="1.1" xmlns="http://www.w3.org/2000/svg" xmlns:xlink="http://www.w3.org/1999/xlink">
    <title>noun_inventory_1861967</title>
    <g id="Welcome" stroke="none" stroke-width="1" fill="none" fill-rule="evenodd">
        <g id="TF-Responsive-Layout" transform="translate(-418.000000, -2760.000000)" fill="#FFFFFF" fill-rule="nonzero">
            <g id="noun_inventory_1861967" transform="translate(418.329683, 2760.500000)">
                <path d="M59.9314286,19.32 L36.2742857,1.57714286 C33.4704762,-0.525714286 29.6152381,-0.525714286 26.8114286,1.57714286 L3.15428571,19.32 C1.16861678,20.8092517 2.84217094e-13,23.1464853 2.84217094e-13,25.6285714 L2.84217094e-13,61.1142857 C2.84217094e-13,65.4694455 3.53055454,69 7.88571429,69 L55.2,69 C59.5551597,69 63.0857143,65.4694455 63.0857143,61.1142857 L63.0857143,25.6285714 C63.0857143,23.1464853 61.9170975,20.8092517 59.9314286,19.32 Z M29.571192,45.3428571 L15.7714286,45.3428571 L15.7714286,29.5714286 L29.571192,29.5714286 L29.571192,45.3428571 Z M15.7714286,65.0571429 L15.7714286,49.2857143 L29.571192,49.2857143 L29.571192,65.0571429 L15.7714286,65.0571429 Z M33.5145223,65.0571429 L33.5145223,49.2857143 L47.3142857,49.2857143 L47.3142857,65.0571429 L33.5145223,65.0571429 Z M59.1428571,61.1142857 C59.1403584,63.2908297 57.376544,65.0546441 55.2,65.0571429 L51.2571429,65.0571429 L51.2571429,49.2857143 C51.2571429,47.1081344 49.4918656,45.3428571 47.3142857,45.3428571 L33.5140491,45.3428571 L33.5140491,29.5714286 C33.5140491,27.3938487 31.7487719,25.6285714 29.571192,25.6285714 L15.7714286,25.6285714 C13.5938487,25.6285714 11.8285714,27.3938487 11.8285714,29.5714286 L11.8285714,65.0571429 L7.88571429,65.0571429 C5.70917026,65.0546441 3.94535586,63.2908297 3.94285714,61.1142857 L3.94285714,25.6285714 C3.94584864,24.3882364 4.52952692,23.2208799 5.52,22.4742857 L29.1771429,4.73142857 C30.5790476,3.68 32.5066667,3.68 33.9085714,4.73142857 L57.5657143,22.4742857 C58.5561874,23.2208799 59.1398656,24.3882364 59.1428571,25.6285714 L59.1428571,61.1142857 Z" id="Shape"></path>
            </g>
        </g>
    </g>
</svg>