<?xml version="1.0" encoding="UTF-8"?>
<svg width="75px" height="60px" viewBox="0 0 75 60" version="1.1" xmlns="http://www.w3.org/2000/svg" xmlns:xlink="http://www.w3.org/1999/xlink">
    <title>noun_e commerce_610671 copy 2</title>
    <g id="Welcome" stroke="none" stroke-width="1" fill="none" fill-rule="evenodd">
        <g id="TF-Responsive-Layout" transform="translate(-413.000000, -2539.000000)" fill="#FFFFFF" fill-rule="nonzero">
            <g id="Shape" transform="translate(413.347935, 2539.500000)">
                <path d="M36.5239432,51.6952815 C36.5239432,47.6609969 33.2535093,44.390563 29.2192247,44.390563 C25.18494,44.390563 21.9145062,47.6609969 21.9145062,51.6952815 C21.9145062,55.7295662 25.18494,59 29.2192247,59 C33.2535093,59 36.5239432,55.7295662 36.5239432,51.6952815 L36.5239432,51.6952815 L36.5239432,51.6952815 Z M26.4097176,51.6952815 C26.4097176,50.1436336 27.6675767,48.8857744 29.2192247,48.8857744 C30.7708726,48.8857744 32.0287318,50.1436336 32.0287318,51.6952815 C32.0287318,53.2469295 30.7708726,54.5047886 29.2192247,54.5047886 C27.6675767,54.5047886 26.4097176,53.2469295 26.4097176,51.6952815 L26.4097176,51.6952815 L26.4097176,51.6952815 Z M62.3714086,51.6952815 C62.3714086,47.6609969 59.1009747,44.390563 55.0666901,44.390563 C51.0324054,44.390563 47.7619716,47.6609969 47.7619716,51.6952815 C47.7619716,55.7295662 51.0324054,59 55.0666901,59 C59.1009747,59 62.3714086,55.7295662 62.3714086,51.6952815 L62.3714086,51.6952815 L62.3714086,51.6952815 Z M52.257183,51.6952815 C52.257183,50.1436336 53.5150421,48.8857744 55.0666901,48.8857744 C56.618338,48.8857744 57.8761972,50.1436336 57.8761972,51.6952815 C57.8761972,53.2469295 56.618338,54.5047886 55.0666901,54.5047886 C53.5150421,54.5047886 52.257183,53.2469295 52.257183,51.6952815 L52.257183,51.6952815 Z M64.398275,21.9145062 L33.1525346,21.9145062 C31.9112163,21.9145062 30.9049289,20.9082188 30.9049289,19.6669005 C30.9049289,18.4255821 31.9112163,17.4192948 33.1525346,17.4192948 L65.865918,17.4192948 L67.7033764,11.7913837 L30.9049289,11.8002806 C29.6636106,11.8002806 28.6573232,10.7939932 28.6573232,9.55267487 C28.6573232,8.31135653 29.6636106,7.30506918 30.9049289,7.30506918 L70.7999299,7.30506918 C72.3285891,7.30506918 73.4112823,8.79810993 72.9362686,10.2510933 L63.3839445,39.4699672 C63.0818373,40.3940597 62.2198277,41.0191545 61.2476057,41.0191545 L25.2859147,41.0191545 C24.2769778,41.0191545 23.3916731,40.3468372 23.1208157,39.3749371 L13.9565093,6.49124949 L1.87845229,4.46498093 C0.654023439,4.26090946 -0.173139653,3.1028812 0.0309318174,1.87845226 C0.235003299,0.654023434 1.39303164,-0.173139737 2.61746054,0.0309318461 L16.1030947,2.27853753 C16.9642117,2.42205705 17.6643269,3.05122515 17.8986895,3.89217378 L26.9867854,36.5023999 L59.6284352,36.5239431 L61.4629889,30.9049289 L34.9372623,30.9049289 C33.695944,30.9049289 32.6896566,29.8986416 32.6896566,28.6573232 C32.6896566,27.4160049 33.695944,26.4097175 34.9372623,26.4097175 L62.7995239,26.4097175 C62.843126,26.4097175 62.8864381,26.4109591 62.9294268,26.4134088 L64.398275,21.9145062 L64.398275,21.9145062 Z"></path>
            </g>
        </g>
    </g>
</svg>